<?xml version="1.0" encoding="UTF-8" standalone="no"?>
<!DOCTYPE svg PUBLIC "-//W3C//DTD SVG 1.1//EN" "http://www.w3.org/Graphics/SVG/1.1/DTD/svg11.dtd">
<svg width="100%" height="100%" viewBox="0 0 137 24" version="1.1" xmlns="http://www.w3.org/2000/svg" xmlns:xlink="http://www.w3.org/1999/xlink" xml:space="preserve" xmlns:serif="http://www.serif.com/" style="fill-rule:evenodd;clip-rule:evenodd;stroke-linecap:round;stroke-linejoin:round;stroke-miterlimit:1.5;">
    <g transform="matrix(1,0,0,1,-60.5468,-39.2159)">
        <g transform="matrix(0.516063,0,0,1.38506,0,0)">
            <g transform="matrix(2.07906,0,0,0.774643,-797.543,-263.497)">
                <text x="437.778px" y="397.809px" style="font-family:'ProximaNova-Regular', 'Proxima Nova';font-size:28.991px;fill:white;">KID</text>
                <text x="482.424px" y="397.809px" style="font-family:'Arial-Black', 'Arial', sans-serif;font-weight:900;font-size:28.991px;fill:white;">ST<tspan x="523.305px 547.455px " y="397.809px 397.809px ">OP</tspan></text>
            </g>
        </g>
        <g transform="matrix(0.516063,0,0,1.38506,0,0)">
            <g transform="matrix(1,0,0,0.893262,4.54747e-13,0)">
                <g transform="matrix(3.6533,0,0,0.808263,-6548.96,3.88483)">
                    <rect x="1838.64" y="41.352" width="8.364" height="2.063" style="fill:white;stroke:white;stroke-width:0.07px;"/>
                </g>
                <g transform="matrix(3.6533,0,0,0.808263,-6548.96,11.293)">
                    <rect x="1838.64" y="41.352" width="8.364" height="2.063" style="fill:white;stroke:white;stroke-width:0.07px;"/>
                </g>
            </g>
        </g>
        <g transform="matrix(0.516063,0,0,1.38506,0,0)">
            <g transform="matrix(3.6533,0,0,0.721991,-6548.96,6.7789)">
                <rect x="1838.64" y="41.352" width="8.364" height="2.063" style="fill:white;stroke:white;stroke-width:0.07px;"/>
            </g>
        </g>
    </g>
</svg>
