<?xml version="1.0" encoding="UTF-8" standalone="no"?>
<!DOCTYPE svg PUBLIC "-//W3C//DTD SVG 1.1//EN" "http://www.w3.org/Graphics/SVG/1.1/DTD/svg11.dtd">
<svg width="100%" height="100%" viewBox="0 0 52 52" version="1.1" xmlns="http://www.w3.org/2000/svg" xmlns:xlink="http://www.w3.org/1999/xlink" xml:space="preserve" xmlns:serif="http://www.serif.com/" style="fill-rule:evenodd;clip-rule:evenodd;stroke-linecap:round;stroke-linejoin:round;stroke-miterlimit:1.5;">
    <g transform="matrix(1,0,0,1,-473.348,-519.019)">
        <g transform="matrix(0.0650208,0,0,0.0650208,485.298,445.326)">
            <g transform="matrix(1,0,0,1,0,1323.02)">
                <path d="M204.801,0.4C92.312,0.4 0,92.712 0,205.201C0,242.326 10.008,278.466 28.992,310.084L0,410.002L99.914,381.009C131.535,399.99 167.676,410.002 204.801,410.002C317.289,410.002 409.602,317.689 409.602,205.201C409.602,92.712 317.289,0.4 204.801,0.4ZM332.844,291.736L323.316,301.263C309.836,314.744 278.832,313.673 258.91,309.83C192.668,297.033 115.441,222.177 100.547,157.353C93.172,125.24 97.242,97.322 107.895,86.67L117.422,77.142C122.68,71.884 131.227,71.892 136.477,77.142L174.598,115.263C177.141,117.806 178.535,121.177 178.535,124.787C178.535,128.396 177.141,131.771 174.598,134.306L165.07,143.845C154.57,154.369 154.57,171.466 165.07,181.966L228.02,244.084C238.551,254.615 255.594,254.627 266.141,244.084L275.668,234.56C280.586,229.611 289.773,229.595 294.734,234.56L332.844,272.67C338.02,277.822 338.215,286.361 332.844,291.736Z" style="fill:white;fill-rule:nonzero;"/>
            </g>
        </g>
        <g transform="matrix(0.516063,0,0,1.38506,0,0)">
            <g transform="matrix(1.93775,0,0,0.721991,-231.906,-97.8254)">
                <circle cx="618.699" cy="680.186" r="25.191" style="fill:none;stroke:white;stroke-width:0.96px;"/>
            </g>
        </g>
    </g>
</svg>
