<?xml version="1.0" encoding="UTF-8" standalone="no"?>
<!DOCTYPE svg PUBLIC "-//W3C//DTD SVG 1.1//EN" "http://www.w3.org/Graphics/SVG/1.1/DTD/svg11.dtd">
<svg width="100%" height="100%" viewBox="0 0 26 26" version="1.1" xmlns="http://www.w3.org/2000/svg" xmlns:xlink="http://www.w3.org/1999/xlink" xml:space="preserve" xmlns:serif="http://www.serif.com/" style="fill-rule:evenodd;clip-rule:evenodd;stroke-linejoin:round;stroke-miterlimit:1.41421;">
    <g transform="matrix(1,0,0,1,-1733.6,-4816.92)">
        <g transform="matrix(0.516063,0,0,1.42105,719,518.143)">
            <g transform="matrix(0.121109,0,0,0.0439815,1966.03,3025.06)">
                <path d="M204.801,0.4C91.688,0.4 0,92.087 0,205.201C0,318.314 91.688,410.002 204.801,410.002C317.914,410.002 409.602,318.314 409.602,205.201C409.602,92.087 317.914,0.4 204.801,0.4ZM204.801,378.002C109.363,378.002 32,300.638 32,205.201C32,109.763 109.363,32.4 204.801,32.4C300.238,32.4 377.602,109.763 377.602,205.201C377.602,300.638 300.238,378.002 204.801,378.002Z" style="fill:white;fill-rule:nonzero;"/>
            </g>
        </g>
        <g transform="matrix(0.516063,0,0,1.42105,719,518.143)">
            <g transform="matrix(0.121109,0,0,0.0439815,1966.03,3025.06)">
                <path d="M102.477,307.513L140.875,307.513L140.875,153.912L102.477,153.912L102.477,307.513ZM256.074,153.912C223.199,154.462 207.027,178.427 204.875,179.513L204.875,153.912L166.477,153.912L166.477,307.513L204.875,307.513L204.875,217.912C204.875,214.627 212.977,188.314 243.273,192.314C259.551,193.377 268.324,214.9 268.875,217.912L268.875,307.513L307.125,307.689L307.125,201.349C305.773,186.002 298.102,154.462 256.074,153.912ZM121.676,102.712C111.074,102.712 102.477,111.298 102.477,121.912C102.477,132.525 111.074,141.111 121.676,141.111C132.273,141.111 140.875,132.525 140.875,121.912C140.875,111.298 132.273,102.712 121.676,102.712Z" style="fill:white;"/>
            </g>
        </g>
    </g>
</svg>
